<svg xmlns="http://www.w3.org/2000/svg" viewBox="0 0 32 32" fill="none">
  <defs>
    <linearGradient id="g" x1="0" y1="0" x2="32" y2="32" gradientUnits="userSpaceOnUse">
      <stop offset="0" stop-color="#FFD8E4"/>
      <stop offset="0.5" stop-color="#D8D4FF"/>
      <stop offset="1" stop-color="#CFF5E5"/>
    </linearGradient>
  </defs>
  <rect width="32" height="32" rx="7" fill="#1A1A1A"/>
  <path d="M11 8v16h6.5c2.5 0 4.5-1.2 4.5-3.8 0-1.9-1.1-3-2.7-3.4 1.3-0.5 2.1-1.5 2.1-3.2 0-2.4-1.9-3.6-4.4-3.6H11zm2.5 2.2h3.8c1.3 0 2.1 0.6 2.1 1.7 0 1.2-0.8 1.8-2.1 1.8h-3.8V10.2zm0 5.4h4.1c1.5 0 2.4 0.7 2.4 2 0 1.4-0.9 2.1-2.4 2.1h-4.1V15.6z" fill="url(#g)"/>
</svg>
